<svg width="512" height="512" viewBox="0 0 512 512" fill="none" xmlns="http://www.w3.org/2000/svg">
<rect width="512" height="512" fill="#000000"/>
<path d="M319.255 197.282C319.958 197.499 320.661 197.716 321.385 197.94C327.355 199.997 333.376 202.556 337.26 207.697C339.54 215.952 338.358 224.874 337.26 233.259C335.653 234.123 335.653 234.123 334.014 235.005C323.932 240.466 314.021 246.169 304.176 252.046C295.45 257.25 286.634 262.272 277.751 267.203C269.116 272.004 260.583 276.967 252.058 281.958C246.083 285.456 240.087 288.918 234.086 292.373C233.064 292.961 232.042 293.55 230.989 294.157C226.836 296.547 222.683 298.937 218.53 301.327C207.551 307.646 196.578 313.975 185.638 320.361C168.683 330.258 151.669 340.054 134.607 349.766C131.11 351.758 127.622 353.765 124.138 355.78C123.221 356.308 122.303 356.837 121.358 357.382C119.589 358.402 117.821 359.425 116.056 360.451C115.268 360.905 114.479 361.359 113.666 361.826C112.969 362.23 112.272 362.634 111.554 363.049C109.828 363.912 109.828 363.912 107.932 363.912C107.932 386.407 107.932 408.902 107.932 432.079C109.496 432.704 111.059 433.328 112.67 433.972C114.024 434.68 115.363 435.415 116.687 436.176C117.453 436.615 118.22 437.054 119.01 437.506C119.83 437.98 120.65 438.454 121.495 438.943C122.783 439.682 122.783 439.682 124.096 440.437C153.787 457.523 153.787 457.523 157.683 460.241C159.971 461.637 159.971 461.637 162.464 461.271C164.812 460.474 166.729 459.546 168.847 458.263C169.631 457.793 170.414 457.324 171.222 456.841C172.07 456.324 172.919 455.807 173.793 455.274C175.67 454.148 177.549 453.023 179.427 451.898C180.932 450.993 180.932 450.993 182.467 450.07C188.042 446.736 193.652 443.463 199.261 440.185C200.441 439.495 201.622 438.804 202.803 438.113C205.134 436.748 207.466 435.385 209.798 434.021C211.91 432.786 214.023 431.55 216.134 430.314C227.845 423.458 239.597 416.68 251.393 409.97C262.308 403.761 262.308 403.761 273.018 397.208C275.579 395.659 278.136 394.506 280.925 393.422C289.177 390.147 289.177 390.147 294.609 383.558C295.971 377.494 295.546 371.373 295.209 365.214C295.169 363.341 295.137 361.469 295.112 359.596C295.037 355.032 294.856 350.482 294.616 345.924C293.903 346.342 293.19 346.76 292.455 347.191C271.322 359.576 250.185 371.95 228.955 384.168C221.155 388.659 213.377 393.185 205.605 397.724C200.559 400.668 195.506 403.601 190.443 406.516C189.892 406.833 189.342 407.15 188.774 407.477C186.12 409.005 183.464 410.531 180.808 412.056C179.844 412.61 178.88 413.164 177.887 413.735C176.959 414.264 176.031 414.792 175.075 415.337C173.27 416.4 171.494 417.513 169.75 418.672C163.648 422.687 163.648 422.687 160.015 422.323C158.626 421.528 158.626 421.528 157.209 420.718C156.539 420.366 155.869 420.014 155.178 419.652C152.867 418.432 150.596 417.157 148.325 415.865C147.537 415.422 146.749 414.979 145.938 414.523C144.007 413.436 142.078 412.345 140.152 411.25C139.903 407.109 139.752 402.97 139.619 398.824C139.512 397.066 139.512 397.066 139.402 395.273C139.198 386.853 139.198 386.853 141.672 383.83C143.928 382.287 146.2 381.155 148.681 380.007C150.551 378.961 152.416 377.907 154.278 376.845C156.359 375.707 158.442 374.572 160.526 373.439C170.178 368.149 179.667 362.643 189.083 356.942C197.294 351.977 205.59 347.169 213.913 342.393C219.472 339.203 225.017 335.993 230.533 332.728C238.596 327.962 246.739 323.335 254.878 318.698C262.59 314.304 270.287 309.887 277.974 305.45C288.558 299.343 299.15 293.254 309.779 287.225C310.801 286.643 311.823 286.062 312.877 285.463C316.125 283.619 319.378 281.782 322.631 279.946C323.652 279.366 324.673 278.786 325.726 278.188C326.68 277.651 327.634 277.115 328.617 276.562C329.886 275.845 329.886 275.845 331.18 275.114C333.469 273.97 333.469 273.97 337.26 273.023C337.26 318.638 337.26 364.253 337.26 411.25C333.82 413.125 330.38 414.999 326.836 416.931C316.389 422.643 306.063 428.537 295.789 434.555C289.272 438.366 282.72 442.11 276.138 445.807C267.779 450.504 259.479 455.293 251.202 460.132C244.248 464.198 237.277 468.237 230.296 472.257C229.274 472.845 228.252 473.434 227.198 474.041C223.046 476.431 218.893 478.821 214.739 481.211C203.408 487.733 192.083 494.264 180.782 500.837C179.856 501.375 178.93 501.912 177.975 502.466C177.101 502.976 176.226 503.485 175.325 504.01C174.497 504.489 173.668 504.968 172.815 505.461C171.295 506.378 169.804 507.345 168.352 508.366C163.615 511.683 163.615 511.683 160.215 511.322C155.753 508.933 151.37 506.446 147.022 503.855C144.978 502.65 142.933 501.445 140.889 500.242C139.832 499.618 138.775 498.994 137.686 498.351C132.465 495.282 127.218 492.26 121.969 489.239C120.935 488.644 119.9 488.048 118.835 487.434C112.523 483.801 106.203 480.184 99.877 476.576C88.328 469.983 76.81 463.335 65.289 456.694C65.289 417.953 65.289 379.212 65.289 339.296C70.918 336.172 76.547 333.048 82.346 329.829C85.988 327.732 89.622 325.628 93.244 323.497C95.191 322.358 97.138 321.219 99.085 320.08C100.071 319.503 101.057 318.927 102.073 318.333C107.135 315.381 112.212 312.456 117.29 309.533C118.823 308.65 118.823 308.65 120.386 307.75C124.539 305.358 128.693 302.968 132.847 300.578C135.953 298.79 139.06 297.002 142.166 295.213C143.188 294.624 144.21 294.035 145.264 293.428C152.062 289.509 158.845 285.563 165.62 281.603C174.405 276.47 183.231 271.411 192.073 266.377C200.674 261.479 209.238 256.522 217.78 251.523C225.646 246.928 233.557 242.415 241.476 237.912C248.866 233.707 256.216 229.442 263.522 225.093C271.906 220.105 280.387 215.306 288.925 210.586C293.449 208.079 297.936 205.545 302.338 202.83C303.44 202.155 303.44 202.155 304.564 201.466C305.9 200.639 307.229 199.8 308.547 198.944C312.585 196.452 314.724 195.856 319.255 197.282Z" fill="#1282C9"/>
<path d="M157.439 107.666C160.053 106.394 160.053 106.393 161.775 106.603C164.448 107.555 166.758 108.864 169.218 110.28C170.819 111.198 170.819 111.199 172.453 112.135C173.611 112.805 174.768 113.475 175.926 114.145C177.127 114.837 178.329 115.528 179.531 116.218C187.881 121.022 196.203 125.873 204.518 130.735C211.742 134.955 218.999 139.116 226.269 143.258C238.047 149.969 249.807 156.713 261.539 163.507C264.156 165.013 266.782 166.502 269.412 167.985C270.904 168.836 272.396 169.686 273.888 170.537C274.561 170.91 275.235 171.283 275.93 171.668C277.745 172.711 277.745 172.711 280.402 174.56V177.4C279.833 177.704 279.263 178.007 278.676 178.32C266.893 184.609 255.224 191.048 243.708 197.812C236.464 202.067 229.186 206.26 221.886 210.419C221.334 210.733 220.782 211.048 220.213 211.372C217.967 212.651 215.722 213.931 213.476 215.21C209.504 217.471 205.535 219.737 201.567 222.006C191.299 227.876 181.023 233.732 170.714 239.532C160.468 245.302 150.307 251.214 140.159 257.154C122.42 267.536 104.625 277.82 86.81 288.072C74.702 295.04 62.603 302.024 50.545 309.078C49.261 309.828 49.26 309.829 47.95 310.594C47.147 311.095 46.343 311.595 45.516 312.11C42.546 313.734 42.546 313.734 39.169 314.798C35.059 316.348 31.908 317.702 29.279 321.308C26.675 329.397 27.608 338.522 27.776 346.9C27.78 349.437 27.778 351.973 27.77 354.509C27.761 360.492 27.818 366.472 27.901 372.454C27.992 379.268 28.008 386.081 28.018 392.895C28.038 406.904 28.154 420.911 28.332 434.919C27.267 434.338 27.266 434.338 26.179 433.746C25.244 433.236 24.31 432.727 23.347 432.202C22.421 431.698 21.496 431.193 20.543 430.674C18.455 429.536 16.365 428.4 14.276 427.263C11.396 425.695 8.518 424.121 5.641 422.546C4.412 421.874 3.182 421.204 1.952 420.536C0.144 419.553 -1.661 418.564 -3.466 417.574C-4.526 416.995 -5.586 416.417 -6.679 415.821C-7.634 415.25 -8.589 414.679 -9.573 414.091C-10.814 413.35 -10.815 413.349 -12.081 412.593C-15.202 409.389 -15.006 406.464 -14.99 402.219C-15.013 400.984 -15.014 400.984 -15.037 399.723C-15.083 396.957 -15.094 394.191 -15.105 391.425C-15.13 389.443 -15.157 387.462 -15.186 385.481C-15.256 380.094 -15.295 374.707 -15.323 369.319C-15.341 365.952 -15.364 362.585 -15.389 359.218C-15.464 348.683 -15.518 338.147 -15.545 327.611C-15.576 315.453 -15.676 303.297 -15.835 291.139C-15.954 281.74 -16.01 272.341 -16.021 262.941C-16.028 257.328 -16.062 251.717 -16.16 246.104C-16.251 240.82 -16.265 235.54 -16.221 230.256C-16.218 228.321 -16.242 226.385 -16.296 224.451C-16.671 210.236 -16.671 210.236 -12.746 206.011C-8.897 203.013 -4.696 200.981 -0.212 199.105C2.804 197.791 5.551 196.138 8.376 194.457C10.467 193.268 12.559 192.079 14.65 190.891C24 185.571 33.316 180.197 42.604 174.768C49.518 170.728 56.453 166.72 63.395 162.725C75.107 155.984 86.787 149.186 98.457 142.371C102.208 140.181 105.958 137.991 109.71 135.802C110.637 135.262 111.564 134.72 112.52 134.163C120.723 129.382 128.95 124.641 137.189 119.922C141.636 117.368 146.064 114.802 150.417 112.092C151.408 111.478 151.409 111.478 152.42 110.851C154.1 109.8 155.77 108.734 157.439 107.666ZM167.384 158.782C164.17 157.215 161.64 156.043 158.137 157.21C157.494 157.577 156.868 157.934 156.244 158.291C155.139 158.909 155.139 158.91 154.056 159.516C153.256 159.984 152.479 160.438 151.702 160.891C149.08 162.378 146.461 163.871 143.854 165.384C142.918 165.928 142.009 166.457 141.101 166.986C136.467 169.667 131.835 172.351 127.216 175.055C121.205 178.579 115.181 182.08 109.143 185.555C101.165 190.143 93.193 194.741 85.247 199.384C75.96 204.813 66.644 210.187 57.294 215.508C55.202 216.695 53.11 217.883 51.02 219.072C48.153 220.779 45.391 222.435 42.328 223.758C37.848 225.624 33.552 227.549 29.758 230.616C26.02 235.061 26.02 235.061 27.116 250.015C27.256 251.877 27.367 253.742 27.447 255.607C27.641 261.107 27.931 266.587 28.332 272.076C29.386 272.076 29.387 272.076 33.447 269.745C34.632 269.059 35.817 268.374 37.004 267.692C37.633 267.33 38.244 266.98 38.854 266.629C41.133 265.315 43.414 264.006 45.697 262.701C49.36 260.612 53.022 258.522 56.684 256.43C62.499 253.108 68.315 249.786 74.14 246.479C85.659 239.939 97.138 233.341 108.525 226.572C116.882 221.601 125.267 216.683 133.697 211.839C138.699 208.968 143.704 206.104 148.683 203.193C163.62 194.415 178.7 185.944 193.901 177.634C194.636 177.232 195.35 176.843 196.063 176.454V174.56C189.358 171.321 182.925 167.657 176.459 163.968C175.371 163.343 174.315 162.735 173.259 162.128C172.209 161.532 171.189 160.954 170.17 160.377C169.223 159.835 168.303 159.308 167.384 158.782Z" fill="#FBFBFB"/>
</svg>
