<svg width="1122" height="818" viewBox="0 0 1122 818" fill="none" xmlns="http://www.w3.org/2000/svg">
<path d="M719.255 297.282C719.958 297.499 720.661 297.716 721.385 297.94C727.355 299.997 733.376 302.556 737.26 307.697C739.54 315.952 738.358 324.874 737.26 333.259C735.653 334.123 735.653 334.123 734.014 335.005C723.932 340.466 714.021 346.169 704.176 352.046C695.45 357.25 686.634 362.272 677.751 367.203C669.116 372.004 660.583 376.967 652.058 381.958C646.083 385.456 640.087 388.918 634.086 392.373C633.064 392.961 632.042 393.55 630.989 394.157C626.836 396.547 622.683 398.937 618.53 401.327C607.551 407.646 596.578 413.975 585.638 420.361C568.683 430.258 551.669 440.054 534.607 449.766C531.11 451.758 527.622 453.765 524.138 455.78C523.221 456.308 522.303 456.837 521.358 457.382C519.589 458.402 517.821 459.425 516.056 460.451C515.268 460.905 514.479 461.359 513.666 461.826C512.969 462.23 512.272 462.634 511.554 463.049C509.828 463.912 509.828 463.912 507.932 463.912C507.932 486.407 507.932 508.902 507.932 532.079C509.496 532.704 511.059 533.328 512.67 533.972C514.024 534.68 515.363 535.415 516.687 536.176C517.453 536.615 518.22 537.054 519.01 537.506C519.83 537.98 520.65 538.454 521.495 538.943C522.783 539.682 522.783 539.682 524.096 540.437C553.787 557.523 553.787 557.523 557.683 560.241C559.971 561.637 559.971 561.637 562.464 561.271C564.812 560.474 566.729 559.546 568.847 558.263C569.631 557.793 570.414 557.324 571.222 556.841C572.07 556.324 572.919 555.807 573.793 555.274C575.67 554.148 577.549 553.023 579.427 551.898C580.932 550.993 580.932 550.993 582.467 550.07C588.042 546.736 593.652 543.463 599.261 540.185C600.441 539.495 601.622 538.804 602.803 538.113C605.134 536.748 607.466 535.385 609.798 534.021C611.91 532.786 614.023 531.55 616.134 530.314C627.845 523.458 639.597 516.68 651.393 509.97C662.308 503.761 662.308 503.761 673.018 497.208C675.579 495.659 678.136 494.506 680.925 493.422C689.177 490.147 689.177 490.147 694.609 483.558C695.971 477.494 695.546 471.373 695.209 465.214C695.169 463.341 695.137 461.469 695.112 459.596C695.037 455.032 694.856 450.482 694.616 445.924C693.903 446.342 693.19 446.76 692.455 447.191C671.322 459.576 650.185 471.95 628.955 484.168C621.155 488.659 613.377 493.185 605.605 497.724C600.559 500.668 595.506 503.601 590.443 506.516C589.892 506.833 589.342 507.15 588.774 507.477C586.12 509.005 583.464 510.531 580.808 512.056C579.844 512.61 578.88 513.164 577.887 513.735C576.959 514.264 576.031 514.792 575.075 515.337C573.27 516.4 571.494 517.513 569.75 518.672C563.648 522.687 563.648 522.687 560.015 522.323C558.626 521.528 558.626 521.528 557.209 520.718C556.539 520.366 555.869 520.014 555.178 519.652C552.867 518.432 550.596 517.157 548.325 515.865C547.537 515.422 546.749 514.979 545.938 514.523C544.007 513.436 542.078 512.345 540.152 511.25C539.903 507.109 539.752 502.97 539.619 498.824C539.512 497.066 539.512 497.066 539.402 495.273C539.198 486.853 539.198 486.853 541.672 483.83C543.928 482.287 546.2 481.155 548.681 480.007C550.551 478.961 552.416 477.907 554.278 476.845C556.359 475.707 558.442 474.572 560.526 473.439C570.178 468.149 579.667 462.643 589.083 456.942C597.294 451.977 605.59 447.169 613.913 442.393C619.472 439.203 625.017 435.993 630.533 432.728C638.596 427.962 646.739 423.335 654.878 418.698C662.59 414.304 670.287 409.887 677.974 405.45C688.558 399.343 699.15 393.254 709.779 387.225C710.801 386.643 711.823 386.062 712.877 385.463C716.125 383.619 719.378 381.782 722.631 379.946C723.652 379.366 724.673 378.786 725.726 378.188C726.68 377.651 727.634 377.115 728.617 376.562C729.886 375.845 729.886 375.845 731.18 375.114C733.469 373.97 733.469 373.97 737.26 373.023C737.26 418.638 737.26 464.253 737.26 511.25C733.82 513.125 730.38 514.999 726.836 516.931C716.389 522.643 706.063 528.537 695.789 534.555C689.272 538.366 682.72 542.11 676.138 545.807C667.779 550.504 659.479 555.293 651.202 560.132C644.248 564.198 637.277 568.237 630.296 572.257C629.274 572.845 628.252 573.434 627.198 574.041C623.046 576.431 618.893 578.821 614.739 581.211C603.408 587.733 592.083 594.264 580.782 600.837C579.856 601.375 578.93 601.912 577.975 602.466C577.101 602.976 576.226 603.485 575.325 604.01C574.497 604.489 573.668 604.968 572.815 605.461C571.295 606.378 569.804 607.345 568.352 608.366C563.615 611.683 563.615 611.683 560.215 611.322C555.753 608.933 551.37 606.446 547.022 603.855C544.978 602.65 542.933 601.445 540.889 600.242C539.832 599.618 538.775 598.994 537.686 598.351C532.465 595.282 527.218 592.26 521.969 589.239C520.935 588.644 519.9 588.048 518.835 587.434C512.523 583.801 506.203 580.184 499.877 576.576C488.328 569.983 476.81 563.335 465.289 556.694C465.289 517.953 465.289 479.212 465.289 439.296C470.918 436.172 476.547 433.048 482.346 429.829C485.988 427.732 489.622 425.628 493.244 423.497C495.191 422.358 497.138 421.219 499.085 420.08C500.071 419.503 501.057 418.927 502.073 418.333C507.135 415.381 512.212 412.456 517.29 409.533C518.823 408.65 518.823 408.65 520.386 407.75C524.539 405.358 528.693 402.968 532.847 400.578C535.953 398.79 539.06 397.002 542.166 395.213C543.188 394.624 544.21 394.035 545.264 393.428C552.062 389.509 558.845 385.563 565.62 381.603C574.405 376.47 583.231 371.411 592.073 366.377C600.674 361.479 609.238 356.522 617.78 351.523C625.646 346.928 633.557 342.415 641.476 337.912C648.866 333.707 656.216 329.442 663.522 325.093C671.906 320.105 680.387 315.306 688.925 310.586C693.449 308.079 697.936 305.545 702.338 302.83C703.44 302.155 703.44 302.155 704.564 301.466C705.9 300.639 707.229 299.8 708.547 298.944C712.585 296.452 714.724 295.856 719.255 297.282Z" fill="#1282C9"/>
<path d="M557.439 207.666C560.053 206.394 560.053 206.393 561.775 206.603C564.448 207.555 566.758 208.864 569.218 210.28C570.819 211.198 570.819 211.199 572.453 212.135C573.611 212.805 574.768 213.475 575.926 214.145C577.127 214.837 578.329 215.528 579.531 216.218C587.881 221.022 596.203 225.873 604.518 230.735C611.742 234.955 618.999 239.116 626.269 243.258C638.047 249.969 649.807 256.713 661.539 263.507C664.156 265.013 666.782 266.502 669.412 267.985C670.904 268.836 672.396 269.686 673.888 270.537C674.561 270.91 675.235 271.283 675.93 271.668C677.745 272.711 677.745 272.711 680.402 274.56V277.4C679.833 277.704 679.263 278.007 678.676 278.32C666.893 284.609 655.224 291.048 643.708 297.812C636.464 302.067 629.186 306.26 621.886 310.419C621.334 310.733 620.782 311.048 620.213 311.372C617.967 312.651 615.722 313.931 613.476 315.21C609.504 317.471 605.535 319.737 601.567 322.006C591.299 327.876 581.023 333.732 570.714 339.532C560.468 345.302 550.307 351.214 540.159 357.154C522.42 367.536 504.625 377.82 486.81 388.072C474.702 395.04 462.603 402.024 450.545 409.078C449.261 409.828 449.26 409.829 447.95 410.594C447.147 411.095 446.343 411.595 445.516 412.11C442.546 413.734 442.546 413.734 439.169 414.798C435.059 416.348 431.908 417.702 429.279 421.308C426.675 429.397 427.608 438.522 427.776 446.9C427.78 449.437 427.778 451.973 427.77 454.509C427.761 460.492 427.818 466.472 427.901 472.454C427.992 479.268 428.008 486.081 428.018 492.895C428.038 506.904 428.154 520.911 428.332 534.919C427.267 534.338 427.266 534.338 426.179 533.746C425.244 533.236 424.31 532.727 423.347 532.202C422.421 531.698 421.496 531.193 420.543 530.674C418.455 529.536 416.365 528.4 414.276 527.263C411.396 525.695 408.518 524.121 405.641 522.546C404.412 521.874 403.182 521.204 401.952 520.536C400.144 519.553 398.339 518.564 396.534 517.574C395.474 516.995 394.414 516.417 393.321 515.821C392.366 515.25 391.411 514.679 390.427 514.091C389.186 513.35 389.185 513.349 387.919 512.593C384.798 509.389 384.994 506.464 385.01 502.219C384.987 500.984 384.986 500.984 384.963 499.723C384.917 496.957 384.906 494.191 384.895 491.425C384.87 489.443 384.843 487.462 384.814 485.481C384.744 480.094 384.705 474.707 384.677 469.319C384.659 465.952 384.636 462.585 384.611 459.218C384.536 448.683 384.482 438.147 384.455 427.611C384.424 415.453 384.324 403.297 384.165 391.139C384.046 381.74 383.99 372.341 383.979 362.941C383.972 357.328 383.938 351.717 383.84 346.104C383.749 340.82 383.735 335.54 383.779 330.256C383.782 328.321 383.758 326.385 383.704 324.451C383.329 310.236 383.329 310.236 387.254 306.011C391.103 303.013 395.304 300.981 399.788 299.105C402.804 297.791 405.551 296.138 408.376 294.457C410.467 293.268 412.559 292.079 414.65 290.891C424 285.571 433.316 280.197 442.604 274.768C449.518 270.728 456.453 266.72 463.395 262.725C475.107 255.984 486.787 249.186 498.457 242.371C502.208 240.181 505.958 237.991 509.71 235.802C510.637 235.262 511.564 234.72 512.52 234.163C520.723 229.382 528.95 224.641 537.189 219.922C541.636 217.368 546.064 214.802 550.417 212.092C551.408 211.478 551.409 211.478 552.42 210.851C554.1 209.8 555.77 208.734 557.439 207.666ZM567.384 258.782C564.17 257.215 561.64 256.043 558.137 257.21C557.494 257.577 556.868 257.934 556.244 258.291C555.139 258.909 555.139 258.91 554.056 259.516C553.256 259.984 552.479 260.438 551.702 260.891C549.08 262.378 546.461 263.871 543.854 265.384C542.918 265.928 542.009 266.457 541.101 266.986C536.467 269.667 531.835 272.351 527.216 275.055C521.205 278.579 515.181 282.08 509.143 285.555C501.165 290.143 493.193 294.741 485.247 299.384C475.96 304.813 466.644 310.187 457.294 315.508C455.202 316.695 453.11 317.883 451.02 319.072C448.153 320.779 445.391 322.435 442.328 323.758C437.848 325.624 433.552 327.549 429.758 330.616C426.02 335.061 426.02 335.061 427.116 350.015C427.256 351.877 427.367 353.742 427.447 355.607C427.641 361.107 427.931 366.587 428.332 372.076C429.386 372.076 429.387 372.076 433.447 369.745C434.632 369.059 435.817 368.374 437.004 367.692C437.633 367.33 438.244 366.98 438.854 366.629C441.133 365.315 443.414 364.006 445.697 362.701C449.36 360.612 453.022 358.522 456.684 356.43C462.499 353.108 468.315 349.786 474.14 346.479C485.659 339.939 497.138 333.341 508.525 326.572C516.882 321.601 525.267 316.683 533.697 311.839C538.699 308.968 543.704 306.104 548.683 303.193C563.62 294.415 578.7 285.944 593.901 277.634C594.636 277.232 595.35 276.843 596.063 276.454V274.56C589.358 271.321 582.925 267.657 576.459 263.968C575.371 263.343 574.315 262.735 573.259 262.128C572.209 261.532 571.189 260.954 570.17 260.377C569.223 259.835 568.303 259.308 567.384 258.782Z" fill="#FBFBFB"/>
</svg>
